#!OML:ASF E:\Steps\Project 1\Capture day 1\Session 2\Subject.ASF
:FULLY-SPECIFIED
:DEGREES
115
root 16.928 17.9887 20.7788 -155.701 -4.91342 177.347
lowerback -28.1665 -2.26033 -6.94138
upperback -0.293361 -1.1632 0.0557296
thorax 14.7697 -1.1938 3.35668
lowerneck -6.0755 -1.23585 -0.229755
upperneck 10.4638 -2.19983 2.95847
head 4.60439 -1.03478 0.907665
rclavicle 9.83984e-015 5.96354e-016
rhumerus -38.3649 -20.5433 -76.5885
rradius 32.8678
rwrist -2.57837
rhand -6.20265 -53.5071
rfingers 7.12502
rthumb 19.6375 -82.5353
lclavicle 9.83984e-015 5.96354e-016
lhumerus -31.7798 6.14748 80.1132
lradius 23.6135
lwrist -5.08878
lhand -20.5746 -12.316
lfingers 7.12502
lthumb 5.78507 17.585
rfemur -21.2089 4.98221 21.1399
rtibia 7.08789
rfoot -19.3382 -1.61488
rtoes -9.32088
lfemur -22.9484 -10.0904 -21.559
ltibia 11.6949
lfoot -8.7445 -2.94455
ltoes -4.04256
116
root 16.9292 17.9866 20.7772 -155.777 -4.95711 177.369
lowerback -28.1304 -2.27433 -6.90393
upperback -0.256777 -1.19109 0.0720983
thorax 14.7992 -1.20321 3.34469
lowerneck -5.92977 -1.19628 -0.373521
upperneck 10.6375 -2.17956 3.17836
head 4.64428 -1.02655 1.01045
rclavicle 5.2181e-015 1.98785e-016
rhumerus -38.3524 -20.4269 -76.649
rradius 32.8957
rwrist -2.70028
rhand -6.28768 -53.2979
rfingers 7.12502
rthumb 19.5558 -82.3344
lclavicle 5.2181e-015 1.98785e-016
lhumerus -31.7747 5.97182 80.1801
lradius 23.7431
lwrist -4.88639
lhand -20.6364 -12.3324
lfingers 7.12502
lthumb 5.72542 17.5702
rfemur -21.1217 4.9985 21.1852
rtibia 7.12852
rfoot -19.3812 -1.65348
rtoes -9.54183
lfemur -22.9437 -10.0768 -21.5376
ltibia 11.8554
lfoot -8.77288 -3.01586
ltoes -4.03005
117
root 16.9296 17.9856 20.7768 -155.748 -4.91353 177.37
lowerback -28.1755 -2.24969 -6.84136
upperback -0.257756 -1.1724 0.0354754
thorax 14.8155 -1.19047 3.27675
lowerneck -5.86017 -1.04011 -0.427179
upperneck 10.6123 -1.97855 3.30345
head 4.6194 -0.925435 1.07476
rclavicle 7.55382e-015 -1.35174e-014
rhumerus -38.355 -20.4891 -76.6726
rradius 32.8706
rwrist -2.68497
rhand -6.40315 -53.0344
rfingers 7.12502
rthumb 19.4448 -82.0821
lclavicle 7.55382e-015 -1.35174e-014
lhumerus -31.7858 5.74328 80.201
lradius 23.8794
lwrist -4.68552
lhand -20.8199 -12.694
lfingers 7.12502
lthumb 5.54825 17.2134
rfemur -21.1845 5.02332 21.1742
rtibia 7.1944
rfoot -19.4285 -1.61821
rtoes -9.47078
lfemur -23.0392 -10.0801 -21.5352
ltibia 11.9771
lfoot -8.76073 -2.99008
ltoes -2.72301
118
root 16.9301 17.9865 20.7777 -155.747 -4.8354 177.388
lowerback -28.164 -2.25248 -6.86025
upperback -0.256252 -1.17756 0.0930898
thorax 14.8146 -1.19551 3.34851
lowerneck -5.84726 -0.658692 -0.796134
upperneck 10.3236 -1.43082 3.58642
head 4.50721 -0.652496 1.2685
rclavicle -6.90777e-015 -1.0138e-014
rhumerus -38.3109 -20.4707 -76.5741
rradius 32.7843
rwrist -2.62584
rhand -6.42665 -52.7899
rfingers 7.12502
rthumb 19.4222 -81.8399
lclavicle -6.90777e-015 -1.0138e-014
lhumerus -31.7704 5.81384 80.2845
lradius 23.9571
lwrist -4.61374
lhand -21.0786 -12.9999
lfingers 7.12502
lthumb 5.29848 16.9139
rfemur -21.2193 5.07279 21.1758
rtibia 7.22716
rfoot -19.4156 -1.60513
rtoes -9.28045
lfemur -23.1079 -10.1777 -21.4976
ltibia 12.0961
lfoot -8.76781 -2.8318
ltoes -2.59013
119
root 16.9317 17.9866 20.777 -155.846 -4.84334 177.452
lowerback -28.1011 -2.25419 -6.77912
upperback -0.202226 -1.20426 0.128662
thorax 14.8522 -1.20117 3.3352
lowerneck -5.88091 -0.33905 -1.11193
upperneck 10.1204 -0.975193 3.83486
head 4.43409 -0.42459 1.43518
rclavicle 1.71452e-014 2.18663e-015
rhumerus -38.1889 -20.4653 -76.5648
rradius 32.6688
rwrist -2.52677
rhand -6.30199 -52.6368
rfingers 7.12502
rthumb 19.542 -81.6747
lclavicle 1.71452e-014 2.18663e-015
lhumerus -31.7653 5.81775 80.3387
lradius 24.0728
lwrist -4.51963
lhand -21.124 -12.9666
lfingers 7.12502
lthumb 5.25465 16.9483
rfemur -21.1049 5.16609 21.263
rtibia 7.21705
rfoot -19.4208 -1.73193
rtoes -9.35351
lfemur -23.0845 -10.25 -21.4066
ltibia 12.2518
lfoot -8.8139 -2.73174
ltoes -3.4779
120
root 16.9334 17.9847 20.7741 -155.99 -4.91034 177.546
lowerback -28.0387 -2.22716 -6.65133
upperback -0.110623 -1.19941 0.146483
thorax 14.9297 -1.18878 3.28978
lowerneck -5.91422 -0.404717 -0.979503
upperneck 10.4101 -1.07279 3.60342
head 4.54472 -0.480825 1.32923
rclavicle -1.33186e-014 3.18055e-015
rhumerus -38.0666 -20.4911 -76.6138
rradius 32.6718
rwrist -2.50004
rhand -5.97762 -52.5581
rfingers 7.12502
rthumb 19.8539 -81.564
lclavicle -1.33186e-014 3.18055e-015
lhumerus -31.704 5.67578 80.4069
lradius 24.1934
lwrist -4.44309
lhand -21.1108 -12.7221
lfingers 7.12502
lthumb 5.26739 17.1925
rfemur -20.9412 5.29554 21.3991
rtibia 7.21882
rfoot -19.4393 -1.92421
rtoes -9.65254
lfemur -22.9932 -10.2754 -21.2935
ltibia 12.3899
lfoot -8.8783 -2.7653
ltoes -3.39136
121
root 16.9361 17.9835 20.7738 -156.114 -5.00352 177.588
lowerback -27.9277 -2.22256 -6.62915
upperback -0.0575382 -1.19995 0.172423
thorax 14.9405 -1.18556 3.30929
lowerneck -5.80539 -0.515434 -0.751935
upperneck 10.8296 -1.25222 3.31919
head 4.67445 -0.582127 1.18291
rclavicle 3.50358e-015 1.77912e-014
rhumerus -38.1071 -20.5744 -76.5931
rradius 32.8017
rwrist -2.48363
rhand -5.6524 -53.0894
rfingers 7.12502
rthumb 20.1665 -82.0627
lclavicle 3.50358e-015 1.77912e-014
lhumerus -31.6112 5.48993 80.5065
lradius 24.2764
lwrist -4.3406
lhand -21.2309 -12.562
lfingers 7.12502
lthumb 5.15142 17.3554
rfemur -20.8078 5.3817 21.475
rtibia 7.22111
rfoot -19.4353 -2.07032
rtoes -10.124
lfemur -22.9799 -10.3047 -21.2323
ltibia 12.6309
lfoot -8.98124 -2.90316
ltoes -2.43453
122
root 16.9392 17.9836 20.776 -156.193 -5.06566 177.596
lowerback -27.8211 -2.30633 -6.64082
upperback -0.0103705 -1.31695 0.273965
thorax 14.9621 -1.23948 3.38446
lowerneck -5.65925 -0.375235 -0.981224
upperneck 10.8869 -1.04829 3.33459
head 4.66271 -0.493645 1.24157
rclavicle 1.63997e-015 3.8763e-015
rhumerus -38.0626 -20.5788 -76.4787
rradius 32.8112
rwrist -2.28844
rhand -5.89449 -53.3501
rfingers 7.12502
rthumb 19.9338 -82.3477
lclavicle 1.63997e-015 3.8763e-015
lhumerus -31.523 5.59493 80.6148
lradius 24.3042
lwrist -4.29285
lhand -21.2809 -12.5786
lfingers 7.12502
lthumb 5.10315 17.34
rfemur -20.7537 5.35072 21.5248
rtibia 7.30067
rfoot -19.5224 -2.06852
rtoes -10.2777
lfemur -23.0792 -10.2318 -21.2266
ltibia 12.9698
lfoot -9.06625 -3.07699
ltoes -1.56249
123
root 16.9402 17.9826 20.7779 -156.258 -5.02822 177.639
lowerback -27.7402 -2.27333 -6.57512
upperback 0.0297344 -1.2946 0.294075
thorax 14.9685 -1.22359 3.38199
lowerneck -5.5428 -0.296686 -1.13523
upperneck 10.8958 -0.943462 3.43751
head 4.64201 -0.446122 1.31036
rclavicle -4.67144e-015 -8.94531e-016
rhumerus -38.0764 -20.6998 -76.4039
rradius 32.81
rwrist -2.10661
rhand -6.2822 -52.9013
rfingers 7.12502
rthumb 19.5611 -81.9373
lclavicle -4.67144e-015 -8.94531e-016
lhumerus -31.4665 5.46945 80.6841
lradius 24.3511
lwrist -4.20669
lhand -21.2247 -12.7508
lfingers 7.12502
lthumb 5.15739 17.1665
rfemur -20.7483 5.35985 21.5818
rtibia 7.43298
rfoot -19.5937 -1.95795
rtoes -9.43177
lfemur -23.1269 -10.1597 -21.2051
ltibia 13.1887
lfoot -9.11882 -3.12082
ltoes -0.94219
124
root 16.941 17.9814 20.7781 -156.323 -4.99848 177.705
lowerback -27.6936 -2.2336 -6.40812
upperback 0.0803212 -1.28586 0.261454
thorax 15.0019 -1.20544 3.26034
lowerneck -5.45652 -0.216289 -1.19529
upperneck 10.9363 -0.854084 3.57628
head 4.63889 -0.401402 1.37382
rclavicle 1.635e-014 1.12313e-014
rhumerus -38.0359 -20.7206 -76.4927
rradius 32.8348
rwrist -2.08155
rhand -5.7746 -52.3813
rfingers 7.12502
rthumb 20.049 -81.3669
lclavicle 1.635e-014 1.12313e-014
lhumerus -31.4739 5.33854 80.6708
lradius 24.5131
lwrist -4.01216
lhand -21.2341 -12.9194
lfingers 7.12502
lthumb 5.1483 16.9981
rfemur -20.689 5.48838 21.64
rtibia 7.45391
rfoot -19.5944 -1.97598
rtoes -8.88806
lfemur -23.1025 -10.1883 -21.1312
ltibia 13.2667
lfoot -9.18539 -3.06474
ltoes -0.697592
